<svg width="6" height="6" viewBox="0 0 6 6" fill="none" xmlns="http://www.w3.org/2000/svg">
<path d="M1.95524 0.0761766C0.771966 0.442429 -0.110796 1.74779 0.0112877 2.94985C0.161545 4.44303 1.28848 5.47605 2.74409 5.47605C5.16699 5.48544 6.39723 2.73385 4.81952 0.855637C4.68805 0.695988 4.3218 0.433038 4.0025 0.282781C3.52355 0.0386124 3.31695 -0.00834322 2.80983 0.00104809C2.47175 0.00104809 2.08672 0.0386124 1.95524 0.0761766ZM3.30756 1.43788C4.29362 1.85109 4.44388 3.23158 3.57051 3.87957C3.21365 4.15191 2.45297 4.18008 2.06794 3.9453C1.11944 3.34427 1.17578 1.93561 2.18063 1.48484C2.64079 1.27824 2.89435 1.26884 3.30756 1.43788Z" fill="#4086F4"/>
</svg>
