<svg width="397" height="268" viewBox="0 0 397 268" fill="none" xmlns="http://www.w3.org/2000/svg">
<path d="M255.535 242.471C255.535 311.903 199.328 368.188 129.996 368.188C60.6627 368.188 4.45556 311.903 4.45556 242.471C4.45559 173.038 60.6628 116.753 129.996 116.753C199.328 116.753 255.535 173.038 255.535 242.471Z" stroke="#E5E5E5"/>
<path d="M283.728 232.506C283.728 310.193 220.839 373.17 143.263 373.17C65.687 373.17 2.79732 310.193 2.79711 232.506C2.79712 154.818 65.6868 91.8408 143.263 91.8408C220.839 91.841 283.728 154.818 283.728 232.506Z" stroke="#E5E5E5"/>
<path d="M307.775 224.203C307.774 309.228 238.945 378.153 154.042 378.153C69.1389 378.153 0.310043 309.228 0.309808 224.203C0.309811 139.178 69.1388 70.252 154.042 70.252C238.946 70.252 307.775 139.178 307.775 224.203Z" stroke="#E5E5E5"/>
<path d="M335.139 215.898C335.139 307.344 261.112 381.475 169.797 381.475C78.4825 381.474 4.45635 307.344 4.45629 215.898C4.4563 124.453 78.4825 50.3225 169.797 50.3223C261.112 50.3223 335.139 124.453 335.139 215.898Z" stroke="#E5E5E5"/>
<path d="M361.673 208.01C361.673 305.647 282.634 384.796 185.137 384.796C87.6401 384.796 8.60204 305.647 8.60204 208.01C8.60208 110.373 87.6402 31.2239 185.137 31.2236C282.634 31.2236 361.673 110.373 361.673 208.01Z" stroke="#E5E5E5"/>
<path d="M396.5 194.725C396.5 301.992 309.665 388.948 202.551 388.948C95.4366 388.948 8.60178 301.992 8.60155 194.725C8.60156 87.457 95.4365 0.500136 202.551 0.500009C309.665 0.500014 396.5 87.4569 396.5 194.725Z" stroke="#E5E5E5"/>
</svg>
